<?xml version="1.0" standalone="no"?>
<!DOCTYPE svg PUBLIC "-//W3C//DTD SVG 20010904//EN"
 "http://www.w3.org/TR/2001/REC-SVG-20010904/DTD/svg10.dtd">
<svg version="1.0" xmlns="http://www.w3.org/2000/svg"
 width="260.000000pt" height="260.000000pt" viewBox="0 0 260.000000 260.000000"
 preserveAspectRatio="xMidYMid meet">
<g transform="translate(0.000000,260.000000) scale(0.100000,-0.100000)"
fill="#000000" stroke="none">
<path d="M410 2468 c-1 -30 -1 -2294 0 -2331 l0 -28 533 2 c292 0 557 5 587
10 30 5 73 11 95 15 61 8 205 59 271 94 261 142 378 379 340 692 -22 179 -108
302 -268 381 -51 25 -106 49 -121 52 -38 8 -28 18 40 44 71 26 138 74 185 133
81 100 117 200 122 346 8 214 -73 370 -244 473 -67 41 -221 93 -320 109 -36 5
-81 13 -100 16 -19 4 -279 9 -577 11 l-543 5 0 -24z m981 -487 c94 -29 143
-91 143 -180 0 -104 -59 -177 -164 -204 -32 -9 -111 -15 -187 -16 l-133 -2 0
212 0 211 153 -5 c83 -3 168 -10 188 -16z m-3 -885 c105 -28 163 -81 182 -169
29 -127 -15 -234 -117 -283 -56 -28 -64 -29 -230 -32 l-173 -4 0 251 0 252
145 -2 c80 0 167 -7 193 -13z"/>
</g>
</svg>
